<svg width="56" height="56" viewBox="0 0 56 56" fill="none" xmlns="http://www.w3.org/2000/svg">
<path d="M27.6765 52C40.929 52 51.6765 41.2568 51.6765 28C51.6765 14.7432 40.9333 4 27.6765 4C14.4197 4 3.67651 14.7432 3.67651 28C3.67651 41.2568 14.4197 52 27.6765 52Z" stroke="#FEFEF2" stroke-width="7" stroke-miterlimit="10" stroke-linecap="round" stroke-linejoin="round"/>
<path d="M27.7104 32.0452C20.3158 32.0452 13.9414 36.2934 10.7133 42.6678C14.9615 47.1528 21.0992 49.6707 27.7104 49.6707C34.3216 49.6707 40.4593 46.916 44.7075 42.6678C41.4794 36.5301 35.1049 32.0452 27.7104 32.0452Z" fill="#FEFEF2"/>
<path d="M27.7105 33.6591C21.2327 33.6979 15.1854 37.7309 12.4436 43.5415C12.4436 43.5415 12.1165 41.3291 12.1251 41.3378C20.2858 49.9719 35.0964 49.705 43.3389 41.299C43.3475 41.2904 42.9946 43.5673 42.9946 43.5673C42.6201 41.9619 41.7292 40.5415 40.6402 39.3277C37.4379 35.6606 32.5312 33.5429 27.7105 33.6591ZM27.7105 30.431C33.435 30.4913 38.8755 33.2761 42.732 37.4167C44.0147 38.794 45.1596 40.266 46.4207 41.7682C46.8167 42.2373 46.8339 42.9002 46.5111 43.3865L46.0764 44.0365C38.8282 51.3621 27.2672 53.6132 17.755 49.705C14.5957 48.4353 11.6775 46.4984 9.31021 44.002C8.72054 43.3994 8.61724 42.4999 8.9874 41.794C12.4824 34.9073 19.9716 30.2244 27.7105 30.431Z" fill="#FEFEF2"/>
<path d="M27.692 27.8868C31.9066 27.8868 35.3232 24.4702 35.3232 20.2555C35.3232 16.0409 31.9066 12.6243 27.692 12.6243C23.4773 12.6243 20.0607 16.0409 20.0607 20.2555C20.0607 24.4702 23.4773 27.8868 27.692 27.8868Z" fill="#FEFEF2"/>
<path d="M27.6918 25.9931C32.7276 25.9027 35.2972 19.8252 31.7205 16.2269C29.5985 14.0189 25.7893 14.0275 23.6631 16.2226C20.0648 19.7994 22.6215 25.9802 27.6918 25.9931ZM27.6918 29.7807C19.2169 29.7678 14.9644 19.5024 20.9299 13.4895C24.4981 9.77502 30.8855 9.77932 34.4579 13.4852C40.4407 19.4852 36.1968 29.8453 27.6918 29.7807Z" fill="#FEFEF2"/>
</svg>
