<svg width="49" height="50" viewBox="0 0 49 50" fill="none" xmlns="http://www.w3.org/2000/svg">
<path d="M36.1397 31.8301C41.5494 24.1987 40.8257 13.5623 33.9776 6.72805C26.3183 -0.909352 13.9037 -0.909352 6.24444 6.72805C-1.41481 14.3685 -1.41481 26.7556 6.24444 34.393C13.0956 41.2272 23.7552 41.9492 31.4084 36.5527L43.8864 49L48.5 44.1601L36.1397 31.8301ZM11.1747 29.4748C6.24142 24.5507 6.24142 16.5703 11.1747 11.6492C16.111 6.72504 24.111 6.72504 29.0443 11.6492C33.9806 16.5703 33.9806 24.5507 29.0443 29.4748C24.111 34.396 16.111 34.396 11.1747 29.4748Z" fill="#121617" stroke="black" stroke-width="0.25" stroke-miterlimit="5"/>
</svg>
