<svg width="49" height="50" viewBox="0 0 49 50" fill="none" xmlns="http://www.w3.org/2000/svg">
<path d="M36.3162 31.8301C41.7259 24.1987 41.0022 13.5623 34.1541 6.72805C26.4948 -0.909352 14.0802 -0.909352 6.42095 6.72805C-1.2383 14.3685 -1.2383 26.7556 6.42095 34.393C13.2721 41.2272 23.9317 41.9492 31.5849 36.5527L44.0629 49L48.6765 44.1601L36.3162 31.8301ZM11.3512 29.4748C6.41794 24.5507 6.41794 16.5703 11.3512 11.6492C16.2875 6.72504 24.2875 6.72504 29.2208 11.6492C34.1571 16.5703 34.1571 24.5507 29.2208 29.4748C24.2875 34.396 16.2875 34.396 11.3512 29.4748Z" fill="#FEFEF2" stroke="#FEFEF2" stroke-width="0.25" stroke-miterlimit="5"/>
</svg>
