<svg width="111" height="178" viewBox="0 0 111 178" fill="none" xmlns="http://www.w3.org/2000/svg">
<g clip-path="url(#clip0_371_18)">
<path d="M9.59461 77.875H101.412C109.946 77.875 114.209 67.5218 108.19 61.4934L62.2988 13.9341C60.4236 12.0546 57.9733 11.1156 55.5243 11.1156C53.0771 11.1156 50.6369 12.0546 48.7776 13.9341L2.81633 61.5004C-3.20126 67.5148 1.05975 77.875 9.59461 77.875ZM101.392 100.125H9.59461C1.06148 100.125 -3.20161 110.475 2.81667 116.507L48.7776 164.066C50.6091 165.936 52.7597 166.875 55.5 166.875C57.9466 166.875 60.3979 165.935 62.2745 164.056L108.166 116.496C114.191 110.485 109.925 100.125 101.392 100.125Z" fill="black"/>
</g>
<defs>
<clipPath id="clip0_371_18">
<rect width="111" height="178" fill="white"/>
</clipPath>
</defs>
</svg>
